M48
; DRILL file {KiCad 9.0.4-1.fc42} date 2025-10-16T14:50:54+0200
; FORMAT={-:-/ absolute / metric / decimal}
; #@! TF.CreationDate,2025-10-16T14:50:54+02:00
; #@! TF.GenerationSoftware,Kicad,Pcbnew,9.0.4-1.fc42
; #@! TF.FileFunction,Plated,1,2,PTH
FMAT,2
METRIC
; #@! TA.AperFunction,Plated,PTH,ViaDrill
T1C0.400
; #@! TA.AperFunction,Plated,PTH,ComponentDrill
T2C0.700
; #@! TA.AperFunction,Plated,PTH,ComponentDrill
T3C0.800
%
G90
G05
T1
X140.0Y-92.5
X150.0Y-92.5
X154.0Y-107.0
X160.019Y-104.725
X165.0Y-105.0
X172.0Y-93.0
T2
X133.4Y-83.18
X133.4Y-90.8
X135.94Y-83.18
X135.94Y-90.8
X146.2Y-83.18
X146.2Y-90.8
X148.64Y-83.18
X148.64Y-90.8
T3
X128.11Y-108.195
X128.11Y-115.815
X130.65Y-108.195
X130.65Y-115.815
X143.35Y-108.195
X143.35Y-115.815
X145.89Y-108.195
X145.89Y-115.815
X157.38Y-99.38
X157.38Y-107.0
X159.92Y-99.38
X159.92Y-107.0
X162.46Y-99.38
X162.46Y-107.0
X165.0Y-99.38
X165.0Y-107.0
X167.54Y-99.38
X167.54Y-107.0
X170.08Y-99.38
X170.08Y-107.0
X172.62Y-99.38
X172.62Y-107.0
M30
