%TF.GenerationSoftware,KiCad,Pcbnew,9.0.4-1.fc42*%
%TF.CreationDate,2025-10-16T14:50:58+02:00*%
%TF.ProjectId,recruitment,72656372-7569-4746-9d65-6e742e6b6963,V0*%
%TF.SameCoordinates,Original*%
%TF.FileFunction,Legend,Bot*%
%TF.FilePolarity,Positive*%
%FSLAX46Y46*%
G04 Gerber Fmt 4.6, Leading zero omitted, Abs format (unit mm)*
G04 Created by KiCad (PCBNEW 9.0.4-1.fc42) date 2025-10-16 14:50:58*
%MOMM*%
%LPD*%
G01*
G04 APERTURE LIST*
%ADD10C,0.150000*%
%ADD11C,0.120000*%
G04 APERTURE END LIST*
D10*
X119709580Y-91513333D02*
X119757200Y-91465714D01*
X119757200Y-91465714D02*
X119804819Y-91322857D01*
X119804819Y-91322857D02*
X119804819Y-91227619D01*
X119804819Y-91227619D02*
X119757200Y-91084762D01*
X119757200Y-91084762D02*
X119661961Y-90989524D01*
X119661961Y-90989524D02*
X119566723Y-90941905D01*
X119566723Y-90941905D02*
X119376247Y-90894286D01*
X119376247Y-90894286D02*
X119233390Y-90894286D01*
X119233390Y-90894286D02*
X119042914Y-90941905D01*
X119042914Y-90941905D02*
X118947676Y-90989524D01*
X118947676Y-90989524D02*
X118852438Y-91084762D01*
X118852438Y-91084762D02*
X118804819Y-91227619D01*
X118804819Y-91227619D02*
X118804819Y-91322857D01*
X118804819Y-91322857D02*
X118852438Y-91465714D01*
X118852438Y-91465714D02*
X118900057Y-91513333D01*
X119804819Y-92465714D02*
X119804819Y-91894286D01*
X119804819Y-92180000D02*
X118804819Y-92180000D01*
X118804819Y-92180000D02*
X118947676Y-92084762D01*
X118947676Y-92084762D02*
X119042914Y-91989524D01*
X119042914Y-91989524D02*
X119090533Y-91894286D01*
X151404819Y-107833333D02*
X150928628Y-107500000D01*
X151404819Y-107261905D02*
X150404819Y-107261905D01*
X150404819Y-107261905D02*
X150404819Y-107642857D01*
X150404819Y-107642857D02*
X150452438Y-107738095D01*
X150452438Y-107738095D02*
X150500057Y-107785714D01*
X150500057Y-107785714D02*
X150595295Y-107833333D01*
X150595295Y-107833333D02*
X150738152Y-107833333D01*
X150738152Y-107833333D02*
X150833390Y-107785714D01*
X150833390Y-107785714D02*
X150881009Y-107738095D01*
X150881009Y-107738095D02*
X150928628Y-107642857D01*
X150928628Y-107642857D02*
X150928628Y-107261905D01*
X150404819Y-108166667D02*
X150404819Y-108833333D01*
X150404819Y-108833333D02*
X151404819Y-108404762D01*
X145504819Y-99833333D02*
X145028628Y-99500000D01*
X145504819Y-99261905D02*
X144504819Y-99261905D01*
X144504819Y-99261905D02*
X144504819Y-99642857D01*
X144504819Y-99642857D02*
X144552438Y-99738095D01*
X144552438Y-99738095D02*
X144600057Y-99785714D01*
X144600057Y-99785714D02*
X144695295Y-99833333D01*
X144695295Y-99833333D02*
X144838152Y-99833333D01*
X144838152Y-99833333D02*
X144933390Y-99785714D01*
X144933390Y-99785714D02*
X144981009Y-99738095D01*
X144981009Y-99738095D02*
X145028628Y-99642857D01*
X145028628Y-99642857D02*
X145028628Y-99261905D01*
X144933390Y-100404762D02*
X144885771Y-100309524D01*
X144885771Y-100309524D02*
X144838152Y-100261905D01*
X144838152Y-100261905D02*
X144742914Y-100214286D01*
X144742914Y-100214286D02*
X144695295Y-100214286D01*
X144695295Y-100214286D02*
X144600057Y-100261905D01*
X144600057Y-100261905D02*
X144552438Y-100309524D01*
X144552438Y-100309524D02*
X144504819Y-100404762D01*
X144504819Y-100404762D02*
X144504819Y-100595238D01*
X144504819Y-100595238D02*
X144552438Y-100690476D01*
X144552438Y-100690476D02*
X144600057Y-100738095D01*
X144600057Y-100738095D02*
X144695295Y-100785714D01*
X144695295Y-100785714D02*
X144742914Y-100785714D01*
X144742914Y-100785714D02*
X144838152Y-100738095D01*
X144838152Y-100738095D02*
X144885771Y-100690476D01*
X144885771Y-100690476D02*
X144933390Y-100595238D01*
X144933390Y-100595238D02*
X144933390Y-100404762D01*
X144933390Y-100404762D02*
X144981009Y-100309524D01*
X144981009Y-100309524D02*
X145028628Y-100261905D01*
X145028628Y-100261905D02*
X145123866Y-100214286D01*
X145123866Y-100214286D02*
X145314342Y-100214286D01*
X145314342Y-100214286D02*
X145409580Y-100261905D01*
X145409580Y-100261905D02*
X145457200Y-100309524D01*
X145457200Y-100309524D02*
X145504819Y-100404762D01*
X145504819Y-100404762D02*
X145504819Y-100595238D01*
X145504819Y-100595238D02*
X145457200Y-100690476D01*
X145457200Y-100690476D02*
X145409580Y-100738095D01*
X145409580Y-100738095D02*
X145314342Y-100785714D01*
X145314342Y-100785714D02*
X145123866Y-100785714D01*
X145123866Y-100785714D02*
X145028628Y-100738095D01*
X145028628Y-100738095D02*
X144981009Y-100690476D01*
X144981009Y-100690476D02*
X144933390Y-100595238D01*
X129877142Y-96454819D02*
X130210475Y-95978628D01*
X130448570Y-96454819D02*
X130448570Y-95454819D01*
X130448570Y-95454819D02*
X130067618Y-95454819D01*
X130067618Y-95454819D02*
X129972380Y-95502438D01*
X129972380Y-95502438D02*
X129924761Y-95550057D01*
X129924761Y-95550057D02*
X129877142Y-95645295D01*
X129877142Y-95645295D02*
X129877142Y-95788152D01*
X129877142Y-95788152D02*
X129924761Y-95883390D01*
X129924761Y-95883390D02*
X129972380Y-95931009D01*
X129972380Y-95931009D02*
X130067618Y-95978628D01*
X130067618Y-95978628D02*
X130448570Y-95978628D01*
X129019999Y-95788152D02*
X129019999Y-96454819D01*
X129258094Y-95407200D02*
X129496189Y-96121485D01*
X129496189Y-96121485D02*
X128877142Y-96121485D01*
X165761904Y-85254819D02*
X165761904Y-86064342D01*
X165761904Y-86064342D02*
X165714285Y-86159580D01*
X165714285Y-86159580D02*
X165666666Y-86207200D01*
X165666666Y-86207200D02*
X165571428Y-86254819D01*
X165571428Y-86254819D02*
X165380952Y-86254819D01*
X165380952Y-86254819D02*
X165285714Y-86207200D01*
X165285714Y-86207200D02*
X165238095Y-86159580D01*
X165238095Y-86159580D02*
X165190476Y-86064342D01*
X165190476Y-86064342D02*
X165190476Y-85254819D01*
X164238095Y-85254819D02*
X164714285Y-85254819D01*
X164714285Y-85254819D02*
X164761904Y-85731009D01*
X164761904Y-85731009D02*
X164714285Y-85683390D01*
X164714285Y-85683390D02*
X164619047Y-85635771D01*
X164619047Y-85635771D02*
X164380952Y-85635771D01*
X164380952Y-85635771D02*
X164285714Y-85683390D01*
X164285714Y-85683390D02*
X164238095Y-85731009D01*
X164238095Y-85731009D02*
X164190476Y-85826247D01*
X164190476Y-85826247D02*
X164190476Y-86064342D01*
X164190476Y-86064342D02*
X164238095Y-86159580D01*
X164238095Y-86159580D02*
X164285714Y-86207200D01*
X164285714Y-86207200D02*
X164380952Y-86254819D01*
X164380952Y-86254819D02*
X164619047Y-86254819D01*
X164619047Y-86254819D02*
X164714285Y-86207200D01*
X164714285Y-86207200D02*
X164761904Y-86159580D01*
X115846666Y-88204819D02*
X116179999Y-87728628D01*
X116418094Y-88204819D02*
X116418094Y-87204819D01*
X116418094Y-87204819D02*
X116037142Y-87204819D01*
X116037142Y-87204819D02*
X115941904Y-87252438D01*
X115941904Y-87252438D02*
X115894285Y-87300057D01*
X115894285Y-87300057D02*
X115846666Y-87395295D01*
X115846666Y-87395295D02*
X115846666Y-87538152D01*
X115846666Y-87538152D02*
X115894285Y-87633390D01*
X115894285Y-87633390D02*
X115941904Y-87681009D01*
X115941904Y-87681009D02*
X116037142Y-87728628D01*
X116037142Y-87728628D02*
X116418094Y-87728628D01*
X115513332Y-87204819D02*
X114894285Y-87204819D01*
X114894285Y-87204819D02*
X115227618Y-87585771D01*
X115227618Y-87585771D02*
X115084761Y-87585771D01*
X115084761Y-87585771D02*
X114989523Y-87633390D01*
X114989523Y-87633390D02*
X114941904Y-87681009D01*
X114941904Y-87681009D02*
X114894285Y-87776247D01*
X114894285Y-87776247D02*
X114894285Y-88014342D01*
X114894285Y-88014342D02*
X114941904Y-88109580D01*
X114941904Y-88109580D02*
X114989523Y-88157200D01*
X114989523Y-88157200D02*
X115084761Y-88204819D01*
X115084761Y-88204819D02*
X115370475Y-88204819D01*
X115370475Y-88204819D02*
X115465713Y-88157200D01*
X115465713Y-88157200D02*
X115513332Y-88109580D01*
X148950057Y-94904761D02*
X148902438Y-94809523D01*
X148902438Y-94809523D02*
X148807200Y-94714285D01*
X148807200Y-94714285D02*
X148664342Y-94571428D01*
X148664342Y-94571428D02*
X148616723Y-94476190D01*
X148616723Y-94476190D02*
X148616723Y-94380952D01*
X148854819Y-94428571D02*
X148807200Y-94333333D01*
X148807200Y-94333333D02*
X148711961Y-94238095D01*
X148711961Y-94238095D02*
X148521485Y-94190476D01*
X148521485Y-94190476D02*
X148188152Y-94190476D01*
X148188152Y-94190476D02*
X147997676Y-94238095D01*
X147997676Y-94238095D02*
X147902438Y-94333333D01*
X147902438Y-94333333D02*
X147854819Y-94428571D01*
X147854819Y-94428571D02*
X147854819Y-94619047D01*
X147854819Y-94619047D02*
X147902438Y-94714285D01*
X147902438Y-94714285D02*
X147997676Y-94809523D01*
X147997676Y-94809523D02*
X148188152Y-94857142D01*
X148188152Y-94857142D02*
X148521485Y-94857142D01*
X148521485Y-94857142D02*
X148711961Y-94809523D01*
X148711961Y-94809523D02*
X148807200Y-94714285D01*
X148807200Y-94714285D02*
X148854819Y-94619047D01*
X148854819Y-94619047D02*
X148854819Y-94428571D01*
X148854819Y-95809523D02*
X148854819Y-95238095D01*
X148854819Y-95523809D02*
X147854819Y-95523809D01*
X147854819Y-95523809D02*
X147997676Y-95428571D01*
X147997676Y-95428571D02*
X148092914Y-95333333D01*
X148092914Y-95333333D02*
X148140533Y-95238095D01*
X128166666Y-85404819D02*
X128499999Y-84928628D01*
X128738094Y-85404819D02*
X128738094Y-84404819D01*
X128738094Y-84404819D02*
X128357142Y-84404819D01*
X128357142Y-84404819D02*
X128261904Y-84452438D01*
X128261904Y-84452438D02*
X128214285Y-84500057D01*
X128214285Y-84500057D02*
X128166666Y-84595295D01*
X128166666Y-84595295D02*
X128166666Y-84738152D01*
X128166666Y-84738152D02*
X128214285Y-84833390D01*
X128214285Y-84833390D02*
X128261904Y-84881009D01*
X128261904Y-84881009D02*
X128357142Y-84928628D01*
X128357142Y-84928628D02*
X128738094Y-84928628D01*
X127785713Y-84500057D02*
X127738094Y-84452438D01*
X127738094Y-84452438D02*
X127642856Y-84404819D01*
X127642856Y-84404819D02*
X127404761Y-84404819D01*
X127404761Y-84404819D02*
X127309523Y-84452438D01*
X127309523Y-84452438D02*
X127261904Y-84500057D01*
X127261904Y-84500057D02*
X127214285Y-84595295D01*
X127214285Y-84595295D02*
X127214285Y-84690533D01*
X127214285Y-84690533D02*
X127261904Y-84833390D01*
X127261904Y-84833390D02*
X127833332Y-85404819D01*
X127833332Y-85404819D02*
X127214285Y-85404819D01*
X157821666Y-86404819D02*
X158154999Y-85928628D01*
X158393094Y-86404819D02*
X158393094Y-85404819D01*
X158393094Y-85404819D02*
X158012142Y-85404819D01*
X158012142Y-85404819D02*
X157916904Y-85452438D01*
X157916904Y-85452438D02*
X157869285Y-85500057D01*
X157869285Y-85500057D02*
X157821666Y-85595295D01*
X157821666Y-85595295D02*
X157821666Y-85738152D01*
X157821666Y-85738152D02*
X157869285Y-85833390D01*
X157869285Y-85833390D02*
X157916904Y-85881009D01*
X157916904Y-85881009D02*
X158012142Y-85928628D01*
X158012142Y-85928628D02*
X158393094Y-85928628D01*
X156869285Y-86404819D02*
X157440713Y-86404819D01*
X157154999Y-86404819D02*
X157154999Y-85404819D01*
X157154999Y-85404819D02*
X157250237Y-85547676D01*
X157250237Y-85547676D02*
X157345475Y-85642914D01*
X157345475Y-85642914D02*
X157440713Y-85690533D01*
X112021904Y-89954819D02*
X112021904Y-90764342D01*
X112021904Y-90764342D02*
X111974285Y-90859580D01*
X111974285Y-90859580D02*
X111926666Y-90907200D01*
X111926666Y-90907200D02*
X111831428Y-90954819D01*
X111831428Y-90954819D02*
X111640952Y-90954819D01*
X111640952Y-90954819D02*
X111545714Y-90907200D01*
X111545714Y-90907200D02*
X111498095Y-90859580D01*
X111498095Y-90859580D02*
X111450476Y-90764342D01*
X111450476Y-90764342D02*
X111450476Y-89954819D01*
X111021904Y-90050057D02*
X110974285Y-90002438D01*
X110974285Y-90002438D02*
X110879047Y-89954819D01*
X110879047Y-89954819D02*
X110640952Y-89954819D01*
X110640952Y-89954819D02*
X110545714Y-90002438D01*
X110545714Y-90002438D02*
X110498095Y-90050057D01*
X110498095Y-90050057D02*
X110450476Y-90145295D01*
X110450476Y-90145295D02*
X110450476Y-90240533D01*
X110450476Y-90240533D02*
X110498095Y-90383390D01*
X110498095Y-90383390D02*
X111069523Y-90954819D01*
X111069523Y-90954819D02*
X110450476Y-90954819D01*
X113191666Y-85359580D02*
X113239285Y-85407200D01*
X113239285Y-85407200D02*
X113382142Y-85454819D01*
X113382142Y-85454819D02*
X113477380Y-85454819D01*
X113477380Y-85454819D02*
X113620237Y-85407200D01*
X113620237Y-85407200D02*
X113715475Y-85311961D01*
X113715475Y-85311961D02*
X113763094Y-85216723D01*
X113763094Y-85216723D02*
X113810713Y-85026247D01*
X113810713Y-85026247D02*
X113810713Y-84883390D01*
X113810713Y-84883390D02*
X113763094Y-84692914D01*
X113763094Y-84692914D02*
X113715475Y-84597676D01*
X113715475Y-84597676D02*
X113620237Y-84502438D01*
X113620237Y-84502438D02*
X113477380Y-84454819D01*
X113477380Y-84454819D02*
X113382142Y-84454819D01*
X113382142Y-84454819D02*
X113239285Y-84502438D01*
X113239285Y-84502438D02*
X113191666Y-84550057D01*
X112810713Y-84550057D02*
X112763094Y-84502438D01*
X112763094Y-84502438D02*
X112667856Y-84454819D01*
X112667856Y-84454819D02*
X112429761Y-84454819D01*
X112429761Y-84454819D02*
X112334523Y-84502438D01*
X112334523Y-84502438D02*
X112286904Y-84550057D01*
X112286904Y-84550057D02*
X112239285Y-84645295D01*
X112239285Y-84645295D02*
X112239285Y-84740533D01*
X112239285Y-84740533D02*
X112286904Y-84883390D01*
X112286904Y-84883390D02*
X112858332Y-85454819D01*
X112858332Y-85454819D02*
X112239285Y-85454819D01*
X123511666Y-99404819D02*
X123844999Y-98928628D01*
X124083094Y-99404819D02*
X124083094Y-98404819D01*
X124083094Y-98404819D02*
X123702142Y-98404819D01*
X123702142Y-98404819D02*
X123606904Y-98452438D01*
X123606904Y-98452438D02*
X123559285Y-98500057D01*
X123559285Y-98500057D02*
X123511666Y-98595295D01*
X123511666Y-98595295D02*
X123511666Y-98738152D01*
X123511666Y-98738152D02*
X123559285Y-98833390D01*
X123559285Y-98833390D02*
X123606904Y-98881009D01*
X123606904Y-98881009D02*
X123702142Y-98928628D01*
X123702142Y-98928628D02*
X124083094Y-98928628D01*
X122654523Y-98404819D02*
X122844999Y-98404819D01*
X122844999Y-98404819D02*
X122940237Y-98452438D01*
X122940237Y-98452438D02*
X122987856Y-98500057D01*
X122987856Y-98500057D02*
X123083094Y-98642914D01*
X123083094Y-98642914D02*
X123130713Y-98833390D01*
X123130713Y-98833390D02*
X123130713Y-99214342D01*
X123130713Y-99214342D02*
X123083094Y-99309580D01*
X123083094Y-99309580D02*
X123035475Y-99357200D01*
X123035475Y-99357200D02*
X122940237Y-99404819D01*
X122940237Y-99404819D02*
X122749761Y-99404819D01*
X122749761Y-99404819D02*
X122654523Y-99357200D01*
X122654523Y-99357200D02*
X122606904Y-99309580D01*
X122606904Y-99309580D02*
X122559285Y-99214342D01*
X122559285Y-99214342D02*
X122559285Y-98976247D01*
X122559285Y-98976247D02*
X122606904Y-98881009D01*
X122606904Y-98881009D02*
X122654523Y-98833390D01*
X122654523Y-98833390D02*
X122749761Y-98785771D01*
X122749761Y-98785771D02*
X122940237Y-98785771D01*
X122940237Y-98785771D02*
X123035475Y-98833390D01*
X123035475Y-98833390D02*
X123083094Y-98881009D01*
X123083094Y-98881009D02*
X123130713Y-98976247D01*
X122761904Y-83054819D02*
X122761904Y-83864342D01*
X122761904Y-83864342D02*
X122714285Y-83959580D01*
X122714285Y-83959580D02*
X122666666Y-84007200D01*
X122666666Y-84007200D02*
X122571428Y-84054819D01*
X122571428Y-84054819D02*
X122380952Y-84054819D01*
X122380952Y-84054819D02*
X122285714Y-84007200D01*
X122285714Y-84007200D02*
X122238095Y-83959580D01*
X122238095Y-83959580D02*
X122190476Y-83864342D01*
X122190476Y-83864342D02*
X122190476Y-83054819D01*
X121190476Y-84054819D02*
X121761904Y-84054819D01*
X121476190Y-84054819D02*
X121476190Y-83054819D01*
X121476190Y-83054819D02*
X121571428Y-83197676D01*
X121571428Y-83197676D02*
X121666666Y-83292914D01*
X121666666Y-83292914D02*
X121761904Y-83340533D01*
X137666666Y-96304819D02*
X137999999Y-95828628D01*
X138238094Y-96304819D02*
X138238094Y-95304819D01*
X138238094Y-95304819D02*
X137857142Y-95304819D01*
X137857142Y-95304819D02*
X137761904Y-95352438D01*
X137761904Y-95352438D02*
X137714285Y-95400057D01*
X137714285Y-95400057D02*
X137666666Y-95495295D01*
X137666666Y-95495295D02*
X137666666Y-95638152D01*
X137666666Y-95638152D02*
X137714285Y-95733390D01*
X137714285Y-95733390D02*
X137761904Y-95781009D01*
X137761904Y-95781009D02*
X137857142Y-95828628D01*
X137857142Y-95828628D02*
X138238094Y-95828628D01*
X136761904Y-95304819D02*
X137238094Y-95304819D01*
X137238094Y-95304819D02*
X137285713Y-95781009D01*
X137285713Y-95781009D02*
X137238094Y-95733390D01*
X137238094Y-95733390D02*
X137142856Y-95685771D01*
X137142856Y-95685771D02*
X136904761Y-95685771D01*
X136904761Y-95685771D02*
X136809523Y-95733390D01*
X136809523Y-95733390D02*
X136761904Y-95781009D01*
X136761904Y-95781009D02*
X136714285Y-95876247D01*
X136714285Y-95876247D02*
X136714285Y-96114342D01*
X136714285Y-96114342D02*
X136761904Y-96209580D01*
X136761904Y-96209580D02*
X136809523Y-96257200D01*
X136809523Y-96257200D02*
X136904761Y-96304819D01*
X136904761Y-96304819D02*
X137142856Y-96304819D01*
X137142856Y-96304819D02*
X137238094Y-96257200D01*
X137238094Y-96257200D02*
X137285713Y-96209580D01*
D11*
%TO.C,U5*%
X162430000Y-86680000D02*
X162430000Y-87250000D01*
X162430000Y-86680000D02*
X164300000Y-86680000D01*
X162430000Y-90250000D02*
X162430000Y-89750000D01*
X162430000Y-93320000D02*
X162430000Y-92750000D01*
X162430000Y-93320000D02*
X164300000Y-93320000D01*
X165600000Y-86680000D02*
X167470000Y-86680000D01*
X165600000Y-93320000D02*
X167470000Y-93320000D01*
X167470000Y-86680000D02*
X167470000Y-87800000D01*
X167470000Y-89400000D02*
X167470000Y-89000000D01*
X167470000Y-90600000D02*
X167470000Y-91000000D01*
X167470000Y-93320000D02*
X167470000Y-92200000D01*
X167980000Y-87800000D02*
X167700000Y-87800000D01*
X167700000Y-87520000D01*
X167980000Y-87800000D01*
G36*
X167980000Y-87800000D02*
G01*
X167700000Y-87800000D01*
X167700000Y-87520000D01*
X167980000Y-87800000D01*
G37*
%TO.C,Q1*%
X144440000Y-95000000D02*
X144440000Y-94350000D01*
X144440000Y-95000000D02*
X144440000Y-95650000D01*
X147560000Y-95000000D02*
X147560000Y-94350000D01*
X147560000Y-95000000D02*
X147560000Y-95650000D01*
X147840000Y-96402500D02*
X147510000Y-96162500D01*
X147840000Y-95922500D01*
X147840000Y-96402500D01*
G36*
X147840000Y-96402500D02*
G01*
X147510000Y-96162500D01*
X147840000Y-95922500D01*
X147840000Y-96402500D01*
G37*
%TO.C,U2*%
X108150000Y-91550000D02*
X114570000Y-91550000D01*
X108150000Y-98450000D02*
X114570000Y-98450000D01*
X114570000Y-91550000D02*
X114570000Y-91820000D01*
X114570000Y-98450000D02*
X114570000Y-98180000D01*
X116300000Y-91860000D02*
X115960000Y-91390000D01*
X116640000Y-91390000D01*
X116300000Y-91860000D01*
G36*
X116300000Y-91860000D02*
G01*
X115960000Y-91390000D01*
X116640000Y-91390000D01*
X116300000Y-91860000D01*
G37*
%TO.C,U1*%
X122000000Y-84440000D02*
X120050000Y-84440000D01*
X122000000Y-84440000D02*
X123950000Y-84440000D01*
X122000000Y-89560000D02*
X120050000Y-89560000D01*
X122000000Y-89560000D02*
X123950000Y-89560000D01*
X124700000Y-84535000D02*
X124460000Y-84205000D01*
X124940000Y-84205000D01*
X124700000Y-84535000D01*
G36*
X124700000Y-84535000D02*
G01*
X124460000Y-84205000D01*
X124940000Y-84205000D01*
X124700000Y-84535000D01*
G37*
%TD*%
M02*
