%TF.GenerationSoftware,KiCad,Pcbnew,9.0.4-1.fc42*%
%TF.CreationDate,2025-10-16T14:50:57+02:00*%
%TF.ProjectId,recruitment,72656372-7569-4746-9d65-6e742e6b6963,V0*%
%TF.SameCoordinates,Original*%
%TF.FileFunction,Legend,Top*%
%TF.FilePolarity,Positive*%
%FSLAX46Y46*%
G04 Gerber Fmt 4.6, Leading zero omitted, Abs format (unit mm)*
G04 Created by KiCad (PCBNEW 9.0.4-1.fc42) date 2025-10-16 14:50:57*
%MOMM*%
%LPD*%
G01*
G04 APERTURE LIST*
%ADD10C,0.150000*%
%ADD11C,0.120000*%
G04 APERTURE END LIST*
D10*
X147674819Y-112766904D02*
X148484342Y-112766904D01*
X148484342Y-112766904D02*
X148579580Y-112719285D01*
X148579580Y-112719285D02*
X148627200Y-112671666D01*
X148627200Y-112671666D02*
X148674819Y-112576428D01*
X148674819Y-112576428D02*
X148674819Y-112385952D01*
X148674819Y-112385952D02*
X148627200Y-112290714D01*
X148627200Y-112290714D02*
X148579580Y-112243095D01*
X148579580Y-112243095D02*
X148484342Y-112195476D01*
X148484342Y-112195476D02*
X147674819Y-112195476D01*
X147674819Y-111814523D02*
X147674819Y-111195476D01*
X147674819Y-111195476D02*
X148055771Y-111528809D01*
X148055771Y-111528809D02*
X148055771Y-111385952D01*
X148055771Y-111385952D02*
X148103390Y-111290714D01*
X148103390Y-111290714D02*
X148151009Y-111243095D01*
X148151009Y-111243095D02*
X148246247Y-111195476D01*
X148246247Y-111195476D02*
X148484342Y-111195476D01*
X148484342Y-111195476D02*
X148579580Y-111243095D01*
X148579580Y-111243095D02*
X148627200Y-111290714D01*
X148627200Y-111290714D02*
X148674819Y-111385952D01*
X148674819Y-111385952D02*
X148674819Y-111671666D01*
X148674819Y-111671666D02*
X148627200Y-111766904D01*
X148627200Y-111766904D02*
X148579580Y-111814523D01*
X154504819Y-103951904D02*
X155314342Y-103951904D01*
X155314342Y-103951904D02*
X155409580Y-103904285D01*
X155409580Y-103904285D02*
X155457200Y-103856666D01*
X155457200Y-103856666D02*
X155504819Y-103761428D01*
X155504819Y-103761428D02*
X155504819Y-103570952D01*
X155504819Y-103570952D02*
X155457200Y-103475714D01*
X155457200Y-103475714D02*
X155409580Y-103428095D01*
X155409580Y-103428095D02*
X155314342Y-103380476D01*
X155314342Y-103380476D02*
X154504819Y-103380476D01*
X154838152Y-102475714D02*
X155504819Y-102475714D01*
X154457200Y-102713809D02*
X155171485Y-102951904D01*
X155171485Y-102951904D02*
X155171485Y-102332857D01*
X128464819Y-88728094D02*
X127464819Y-88728094D01*
X128464819Y-88156666D02*
X127893390Y-88585237D01*
X127464819Y-88156666D02*
X128036247Y-88728094D01*
X128464819Y-87204285D02*
X128464819Y-87775713D01*
X128464819Y-87489999D02*
X127464819Y-87489999D01*
X127464819Y-87489999D02*
X127607676Y-87585237D01*
X127607676Y-87585237D02*
X127702914Y-87680475D01*
X127702914Y-87680475D02*
X127750533Y-87775713D01*
D11*
%TO.C,U3*%
X126780000Y-109355000D02*
X126780000Y-114655000D01*
X126780000Y-114655000D02*
X147220000Y-114655000D01*
X147220000Y-109355000D02*
X126780000Y-109355000D01*
X147220000Y-111005000D02*
X147220000Y-109355000D01*
X147220000Y-114655000D02*
X147220000Y-113005000D01*
X147220000Y-113005000D02*
G75*
G02*
X147220000Y-111005000I0J1000000D01*
G01*
%TO.C,U4*%
X156050000Y-100540000D02*
X156050000Y-102190000D01*
X156050000Y-104190000D02*
X156050000Y-105840000D01*
X156050000Y-105840000D02*
X173950000Y-105840000D01*
X173950000Y-100540000D02*
X156050000Y-100540000D01*
X173950000Y-105840000D02*
X173950000Y-100540000D01*
X156050000Y-102190000D02*
G75*
G02*
X156050000Y-104190000I0J-1000000D01*
G01*
%TO.C,K1*%
X131010000Y-84220000D02*
X131010000Y-85990000D01*
X131010000Y-87990000D02*
X131010000Y-89760000D01*
X131010000Y-89760000D02*
X151030000Y-89760000D01*
X151030000Y-84220000D02*
X131010000Y-84220000D01*
X151030000Y-89760000D02*
X151030000Y-84220000D01*
X131010000Y-85990000D02*
G75*
G02*
X131010000Y-87990000I0J-1000000D01*
G01*
%TD*%
M02*
