%TF.GenerationSoftware,KiCad,Pcbnew,9.0.4-1.fc42*%
%TF.CreationDate,2025-10-16T14:50:57+02:00*%
%TF.ProjectId,recruitment,72656372-7569-4746-9d65-6e742e6b6963,V0*%
%TF.SameCoordinates,Original*%
%TF.FileFunction,Paste,Bot*%
%TF.FilePolarity,Positive*%
%FSLAX46Y46*%
G04 Gerber Fmt 4.6, Leading zero omitted, Abs format (unit mm)*
G04 Created by KiCad (PCBNEW 9.0.4-1.fc42) date 2025-10-16 14:50:57*
%MOMM*%
%LPD*%
G01*
G04 APERTURE LIST*
G04 Aperture macros list*
%AMRoundRect*
0 Rectangle with rounded corners*
0 $1 Rounding radius*
0 $2 $3 $4 $5 $6 $7 $8 $9 X,Y pos of 4 corners*
0 Add a 4 corners polygon primitive as box body*
4,1,4,$2,$3,$4,$5,$6,$7,$8,$9,$2,$3,0*
0 Add four circle primitives for the rounded corners*
1,1,$1+$1,$2,$3*
1,1,$1+$1,$4,$5*
1,1,$1+$1,$6,$7*
1,1,$1+$1,$8,$9*
0 Add four rect primitives between the rounded corners*
20,1,$1+$1,$2,$3,$4,$5,0*
20,1,$1+$1,$4,$5,$6,$7,0*
20,1,$1+$1,$6,$7,$8,$9,0*
20,1,$1+$1,$8,$9,$2,$3,0*%
G04 Aperture macros list end*
%ADD10RoundRect,0.079500X-0.100500X0.079500X-0.100500X-0.079500X0.100500X-0.079500X0.100500X0.079500X0*%
%ADD11RoundRect,0.079500X0.100500X-0.079500X0.100500X0.079500X-0.100500X0.079500X-0.100500X-0.079500X0*%
%ADD12RoundRect,0.079500X0.079500X0.100500X-0.079500X0.100500X-0.079500X-0.100500X0.079500X-0.100500X0*%
%ADD13R,1.600000X0.500000*%
%ADD14R,0.600000X0.900000*%
%ADD15R,1.700000X1.800000*%
%ADD16RoundRect,0.079500X-0.079500X-0.100500X0.079500X-0.100500X0.079500X0.100500X-0.079500X0.100500X0*%
%ADD17RoundRect,0.150000X0.150000X-0.587500X0.150000X0.587500X-0.150000X0.587500X-0.150000X-0.587500X0*%
%ADD18RoundRect,0.250000X1.275000X1.125000X-1.275000X1.125000X-1.275000X-1.125000X1.275000X-1.125000X0*%
%ADD19RoundRect,0.250000X0.850000X0.350000X-0.850000X0.350000X-0.850000X-0.350000X0.850000X-0.350000X0*%
%ADD20RoundRect,0.150000X0.825000X0.150000X-0.825000X0.150000X-0.825000X-0.150000X0.825000X-0.150000X0*%
G04 APERTURE END LIST*
D10*
%TO.C,C1*%
X120400000Y-92025000D03*
X120400000Y-91335000D03*
%TD*%
%TO.C,R7*%
X152000000Y-107655000D03*
X152000000Y-108345000D03*
%TD*%
D11*
%TO.C,R8*%
X144000000Y-100345000D03*
X144000000Y-99655000D03*
%TD*%
D12*
%TO.C,R4*%
X130035476Y-97000000D03*
X129345476Y-97000000D03*
%TD*%
D13*
%TO.C,U5*%
X167450000Y-88400000D03*
X167450000Y-90000000D03*
X167450000Y-91600000D03*
D14*
X164950000Y-92800000D03*
D15*
X162600000Y-91500000D03*
X162600000Y-88500000D03*
D14*
X164950000Y-87200000D03*
%TD*%
D16*
%TO.C,R3*%
X115335000Y-86700000D03*
X116025000Y-86700000D03*
%TD*%
D17*
%TO.C,Q1*%
X146950000Y-95937500D03*
X145050000Y-95937500D03*
X146000000Y-94062500D03*
%TD*%
D12*
%TO.C,R2*%
X128345000Y-86000000D03*
X127655000Y-86000000D03*
%TD*%
%TO.C,R1*%
X158000000Y-87000000D03*
X157310000Y-87000000D03*
%TD*%
D18*
%TO.C,U2*%
X111675000Y-96525000D03*
X111675000Y-93475000D03*
X108325000Y-96525000D03*
X108325000Y-93475000D03*
D19*
X116300000Y-92720000D03*
X116300000Y-97280000D03*
%TD*%
D12*
%TO.C,C2*%
X116025000Y-85000000D03*
X115335000Y-85000000D03*
%TD*%
%TO.C,R6*%
X123690000Y-100000000D03*
X123000000Y-100000000D03*
%TD*%
D20*
%TO.C,U1*%
X124475000Y-85095000D03*
X124475000Y-86365000D03*
X124475000Y-87635000D03*
X124475000Y-88905000D03*
X119525000Y-88905000D03*
X119525000Y-87635000D03*
X119525000Y-86365000D03*
X119525000Y-85095000D03*
%TD*%
D12*
%TO.C,R5*%
X137845000Y-96900000D03*
X137155000Y-96900000D03*
%TD*%
M02*
